<?xml version="1.0" encoding="UTF-8" standalone="no"?>
<!DOCTYPE svg PUBLIC "-//W3C//DTD SVG 1.1//EN" "http://www.w3.org/Graphics/SVG/1.1/DTD/svg11.dtd">
<svg xmlns:xlink="http://www.w3.org/1999/xlink" height="1644px" version="1.1" viewBox="0 0 2626 1644" width="2626px" x="0px" y="0px" xmlns="http://www.w3.org/2000/svg">
  <rect height="1644" style="fill:rgb(255,255,255);stroke:none;" width="2626" x="0" y="0"/>
  <line style="fill:none;stroke:rgb(0,0,0);stroke-miterlimit:10;stroke-linecap:square;" x1="1539" x2="1723" y1="842" y2="842"/>
  <line style="fill:none;stroke:rgb(0,0,0);stroke-miterlimit:10;stroke-linecap:square;" x1="1538" x2="1539" y1="842" y2="842"/>
  <line style="fill:none;stroke:rgb(0,0,0);stroke-miterlimit:10;stroke-linecap:square;" x1="1538" x2="1538" y1="842" y2="842"/>
  <line style="fill:none;stroke:rgb(0,0,0);stroke-miterlimit:10;stroke-linecap:square;" x1="1537" x2="1538" y1="842" y2="842"/>
  <line style="fill:none;stroke:rgb(0,0,0);stroke-miterlimit:10;stroke-linecap:square;" x1="1536" x2="1538" y1="842" y2="842"/>
  <line style="fill:none;stroke:rgb(0,0,0);stroke-miterlimit:10;stroke-linecap:square;" x1="1536" x2="1537" y1="842" y2="842"/>
  <line style="fill:none;stroke:rgb(0,0,0);stroke-miterlimit:10;stroke-linecap:square;" x1="1480" x2="1539" y1="880" y2="842"/>
  <line style="fill:none;stroke:rgb(0,0,0);stroke-miterlimit:10;stroke-linecap:square;" x1="1480" x2="1538" y1="880" y2="842"/>
  <line style="fill:none;stroke:rgb(0,0,0);stroke-miterlimit:10;stroke-linecap:square;" x1="1480" x2="1480" y1="880" y2="880"/>
  <line style="fill:none;stroke:rgb(0,0,0);stroke-miterlimit:10;stroke-linecap:square;" x1="1479" x2="1537" y1="880" y2="842"/>
  <line style="fill:none;stroke:rgb(0,0,0);stroke-miterlimit:10;stroke-linecap:square;" x1="1479" x2="1480" y1="880" y2="880"/>
  <line style="fill:none;stroke:rgb(0,0,0);stroke-miterlimit:10;stroke-linecap:square;" x1="1478" x2="1536" y1="880" y2="842"/>
  <line style="fill:none;stroke:rgb(0,0,0);stroke-miterlimit:10;stroke-linecap:square;" x1="1478" x2="1479" y1="880" y2="880"/>
  <line style="fill:none;stroke:rgb(0,0,0);stroke-miterlimit:10;stroke-linecap:square;" x1="1476" x2="1478" y1="879" y2="880"/>
  <line style="fill:none;stroke:rgb(0,0,0);stroke-miterlimit:10;stroke-linecap:square;" x1="1535" x2="1536" y1="841" y2="842"/>
  <line style="fill:none;stroke:rgb(0,0,0);stroke-miterlimit:10;stroke-linecap:square;" x1="1535" x2="1476" y1="841" y2="879"/>
  <line style="fill:none;stroke:rgb(0,0,0);stroke-miterlimit:10;stroke-linecap:square;" x1="1536" x2="1538" y1="841" y2="842"/>
  <line style="fill:none;stroke:rgb(0,0,0);stroke-miterlimit:10;stroke-linecap:square;" x1="1536" x2="1535" y1="841" y2="841"/>
  <line style="fill:none;stroke:rgb(0,0,0);stroke-miterlimit:10;stroke-linecap:square;" x1="1296" x2="1478" y1="906" y2="880"/>
  <line style="fill:none;stroke:rgb(0,0,0);stroke-miterlimit:10;stroke-linecap:square;" x1="1295" x2="1476" y1="905" y2="879"/>
  <line style="fill:none;stroke:rgb(0,0,0);stroke-miterlimit:10;stroke-linecap:square;" x1="1295" x2="1296" y1="905" y2="906"/>
  <line style="fill:none;stroke:rgb(0,0,0);stroke-miterlimit:10;stroke-linecap:square;" x1="1480" x2="1480" y1="897" y2="880"/>
  <line style="fill:none;stroke:rgb(0,0,0);stroke-miterlimit:10;stroke-linecap:square;" x1="1480" x2="1480" y1="897" y2="880"/>
  <line style="fill:none;stroke:rgb(0,0,0);stroke-miterlimit:10;stroke-linecap:square;" x1="1480" x2="1480" y1="897" y2="897"/>
  <line style="fill:none;stroke:rgb(0,0,0);stroke-miterlimit:10;stroke-linecap:square;" x1="1479" x2="1479" y1="897" y2="880"/>
  <line style="fill:none;stroke:rgb(0,0,0);stroke-miterlimit:10;stroke-linecap:square;" x1="1479" x2="1480" y1="897" y2="897"/>
  <line style="fill:none;stroke:rgb(0,0,0);stroke-miterlimit:10;stroke-linecap:square;" x1="1478" x2="1478" y1="897" y2="880"/>
  <line style="fill:none;stroke:rgb(0,0,0);stroke-miterlimit:10;stroke-linecap:square;" x1="1478" x2="1479" y1="897" y2="897"/>
  <line style="fill:none;stroke:rgb(0,0,0);stroke-miterlimit:10;stroke-linecap:square;" x1="1296" x2="1296" y1="923" y2="906"/>
  <line style="fill:none;stroke:rgb(0,0,0);stroke-miterlimit:10;stroke-linecap:square;" x1="1296" x2="1478" y1="923" y2="897"/>
  <line style="fill:none;stroke:rgb(0,0,0);stroke-miterlimit:10;stroke-linecap:square;" x1="1295" x2="1295" y1="922" y2="905"/>
  <line style="fill:none;stroke:rgb(0,0,0);stroke-miterlimit:10;stroke-linecap:square;" x1="1295" x2="1296" y1="922" y2="923"/>
  <line style="fill:none;stroke:rgb(0,0,0);stroke-miterlimit:10;stroke-linecap:square;" x1="1284" x2="1295" y1="929" y2="922"/>
  <line style="fill:none;stroke:rgb(0,0,0);stroke-miterlimit:10;stroke-linecap:square;" x1="1284" x2="1295" y1="912" y2="905"/>
  <line style="fill:none;stroke:rgb(0,0,0);stroke-miterlimit:10;stroke-linecap:square;" x1="1284" x2="1284" y1="912" y2="929"/>
  <line style="fill:none;stroke:rgb(0,0,0);stroke-miterlimit:10;stroke-linecap:square;" x1="1480" x2="1480" y1="898" y2="897"/>
  <line style="fill:none;stroke:rgb(0,0,0);stroke-miterlimit:10;stroke-linecap:square;" x1="1479" x2="1479" y1="898" y2="897"/>
  <line style="fill:none;stroke:rgb(0,0,0);stroke-miterlimit:10;stroke-linecap:square;" x1="1479" x2="1480" y1="898" y2="898"/>
  <line style="fill:none;stroke:rgb(0,0,0);stroke-miterlimit:10;stroke-linecap:square;" x1="1478" x2="1478" y1="897" y2="897"/>
  <line style="fill:none;stroke:rgb(0,0,0);stroke-miterlimit:10;stroke-linecap:square;" x1="1478" x2="1479" y1="897" y2="898"/>
  <line style="fill:none;stroke:rgb(0,0,0);stroke-miterlimit:10;stroke-linecap:square;" x1="1296" x2="1296" y1="924" y2="923"/>
  <line style="fill:none;stroke:rgb(0,0,0);stroke-miterlimit:10;stroke-linecap:square;" x1="1296" x2="1478" y1="924" y2="897"/>
  <line style="fill:none;stroke:rgb(0,0,0);stroke-miterlimit:10;stroke-linecap:square;" x1="1295" x2="1295" y1="923" y2="922"/>
  <line style="fill:none;stroke:rgb(0,0,0);stroke-miterlimit:10;stroke-linecap:square;" x1="1295" x2="1296" y1="923" y2="924"/>
  <line style="fill:none;stroke:rgb(0,0,0);stroke-miterlimit:10;stroke-linecap:square;" x1="1284" x2="1284" y1="929" y2="929"/>
  <line style="fill:none;stroke:rgb(0,0,0);stroke-miterlimit:10;stroke-linecap:square;" x1="1284" x2="1295" y1="929" y2="923"/>
  <line style="fill:none;stroke:rgb(0,0,0);stroke-miterlimit:10;stroke-linecap:square;" x1="1275" x2="1284" y1="878" y2="912"/>
  <line style="fill:none;stroke:rgb(0,0,0);stroke-miterlimit:10;stroke-linecap:square;" x1="1285" x2="1295" y1="871" y2="905"/>
  <line style="fill:none;stroke:rgb(0,0,0);stroke-miterlimit:10;stroke-linecap:square;" x1="1285" x2="1275" y1="871" y2="878"/>
  <line style="fill:none;stroke:rgb(0,0,0);stroke-miterlimit:10;stroke-linecap:square;" x1="1466" x2="1476" y1="845" y2="879"/>
  <line style="fill:none;stroke:rgb(0,0,0);stroke-miterlimit:10;stroke-linecap:square;" x1="1466" x2="1285" y1="845" y2="871"/>
  <line style="fill:none;stroke:rgb(0,0,0);stroke-miterlimit:10;stroke-linecap:square;" x1="1525" x2="1535" y1="808" y2="841"/>
  <line style="fill:none;stroke:rgb(0,0,0);stroke-miterlimit:10;stroke-linecap:square;" x1="1525" x2="1466" y1="808" y2="845"/>
  <line style="fill:none;stroke:rgb(0,0,0);stroke-miterlimit:10;stroke-linecap:square;" x1="1256" x2="1284" y1="954" y2="929"/>
  <line style="fill:none;stroke:rgb(0,0,0);stroke-miterlimit:10;stroke-linecap:square;" x1="1256" x2="1284" y1="954" y2="929"/>
  <line style="fill:none;stroke:rgb(0,0,0);stroke-miterlimit:10;stroke-linecap:square;" x1="1256" x2="1256" y1="954" y2="954"/>
  <line style="fill:none;stroke:rgb(0,0,0);stroke-miterlimit:10;stroke-linecap:square;" x1="1256" x2="1284" y1="936" y2="912"/>
  <line style="fill:none;stroke:rgb(0,0,0);stroke-miterlimit:10;stroke-linecap:square;" x1="1256" x2="1256" y1="936" y2="954"/>
  <line style="fill:none;stroke:rgb(0,0,0);stroke-miterlimit:10;stroke-linecap:square;" x1="1246" x2="1275" y1="903" y2="878"/>
  <line style="fill:none;stroke:rgb(0,0,0);stroke-miterlimit:10;stroke-linecap:square;" x1="1246" x2="1256" y1="903" y2="936"/>
  <line style="fill:none;stroke:rgb(0,0,0);stroke-miterlimit:10;stroke-linecap:square;" x1="1268" x2="1275" y1="836" y2="878"/>
  <line style="fill:none;stroke:rgb(0,0,0);stroke-miterlimit:10;stroke-linecap:square;" x1="1279" x2="1285" y1="829" y2="871"/>
  <line style="fill:none;stroke:rgb(0,0,0);stroke-miterlimit:10;stroke-linecap:square;" x1="1279" x2="1268" y1="829" y2="836"/>
  <line style="fill:none;stroke:rgb(0,0,0);stroke-miterlimit:10;stroke-linecap:square;" x1="1460" x2="1466" y1="803" y2="845"/>
  <line style="fill:none;stroke:rgb(0,0,0);stroke-miterlimit:10;stroke-linecap:square;" x1="1460" x2="1279" y1="803" y2="829"/>
  <line style="fill:none;stroke:rgb(0,0,0);stroke-miterlimit:10;stroke-linecap:square;" x1="1519" x2="1525" y1="766" y2="808"/>
  <line style="fill:none;stroke:rgb(0,0,0);stroke-miterlimit:10;stroke-linecap:square;" x1="1519" x2="1460" y1="766" y2="803"/>
  <line style="fill:none;stroke:rgb(0,0,0);stroke-miterlimit:10;stroke-linecap:square;" x1="1250" x2="1256" y1="958" y2="954"/>
  <line style="fill:none;stroke:rgb(0,0,0);stroke-miterlimit:10;stroke-linecap:square;" x1="1250" x2="1256" y1="957" y2="954"/>
  <line style="fill:none;stroke:rgb(0,0,0);stroke-miterlimit:10;stroke-linecap:square;" x1="1250" x2="1250" y1="957" y2="958"/>
  <line style="fill:none;stroke:rgb(0,0,0);stroke-miterlimit:10;stroke-linecap:square;" x1="1250" x2="1256" y1="940" y2="936"/>
  <line style="fill:none;stroke:rgb(0,0,0);stroke-miterlimit:10;stroke-linecap:square;" x1="1250" x2="1250" y1="940" y2="957"/>
  <line style="fill:none;stroke:rgb(0,0,0);stroke-miterlimit:10;stroke-linecap:square;" x1="1240" x2="1246" y1="907" y2="903"/>
  <line style="fill:none;stroke:rgb(0,0,0);stroke-miterlimit:10;stroke-linecap:square;" x1="1240" x2="1250" y1="907" y2="940"/>
  <line style="fill:none;stroke:rgb(0,0,0);stroke-miterlimit:10;stroke-linecap:square;" x1="1248" x2="1256" y1="963" y2="954"/>
  <line style="fill:none;stroke:rgb(0,0,0);stroke-miterlimit:10;stroke-linecap:square;" x1="1242" x2="1250" y1="967" y2="958"/>
  <line style="fill:none;stroke:rgb(0,0,0);stroke-miterlimit:10;stroke-linecap:square;" x1="1242" x2="1248" y1="967" y2="963"/>
  <line style="fill:none;stroke:rgb(0,0,0);stroke-miterlimit:10;stroke-linecap:square;" x1="1242" x2="1250" y1="967" y2="957"/>
  <line style="fill:none;stroke:rgb(0,0,0);stroke-miterlimit:10;stroke-linecap:square;" x1="1242" x2="1242" y1="967" y2="967"/>
  <line style="fill:none;stroke:rgb(0,0,0);stroke-miterlimit:10;stroke-linecap:square;" x1="1242" x2="1250" y1="950" y2="940"/>
  <line style="fill:none;stroke:rgb(0,0,0);stroke-miterlimit:10;stroke-linecap:square;" x1="1242" x2="1242" y1="950" y2="967"/>
  <line style="fill:none;stroke:rgb(0,0,0);stroke-miterlimit:10;stroke-linecap:square;" x1="1295" x2="1296" y1="925" y2="924"/>
  <line style="fill:none;stroke:rgb(0,0,0);stroke-miterlimit:10;stroke-linecap:square;" x1="1294" x2="1295" y1="924" y2="923"/>
  <line style="fill:none;stroke:rgb(0,0,0);stroke-miterlimit:10;stroke-linecap:square;" x1="1294" x2="1295" y1="924" y2="925"/>
  <line style="fill:none;stroke:rgb(0,0,0);stroke-miterlimit:10;stroke-linecap:square;" x1="1284" x2="1284" y1="931" y2="929"/>
  <line style="fill:none;stroke:rgb(0,0,0);stroke-miterlimit:10;stroke-linecap:square;" x1="1284" x2="1294" y1="931" y2="924"/>
  <line style="fill:none;stroke:rgb(0,0,0);stroke-miterlimit:10;stroke-linecap:square;" x1="1255" x2="1256" y1="956" y2="954"/>
  <line style="fill:none;stroke:rgb(0,0,0);stroke-miterlimit:10;stroke-linecap:square;" x1="1255" x2="1284" y1="956" y2="931"/>
  <line style="fill:none;stroke:rgb(0,0,0);stroke-miterlimit:10;stroke-linecap:square;" x1="1247" x2="1248" y1="965" y2="963"/>
  <line style="fill:none;stroke:rgb(0,0,0);stroke-miterlimit:10;stroke-linecap:square;" x1="1247" x2="1255" y1="965" y2="956"/>
  <line style="fill:none;stroke:rgb(0,0,0);stroke-miterlimit:10;stroke-linecap:square;" x1="1241" x2="1242" y1="969" y2="967"/>
  <line style="fill:none;stroke:rgb(0,0,0);stroke-miterlimit:10;stroke-linecap:square;" x1="1241" x2="1247" y1="969" y2="965"/>
  <line style="fill:none;stroke:rgb(0,0,0);stroke-miterlimit:10;stroke-linecap:square;" x1="1233" x2="1240" y1="896" y2="907"/>
  <line style="fill:none;stroke:rgb(0,0,0);stroke-miterlimit:10;stroke-linecap:square;" x1="1239" x2="1246" y1="892" y2="903"/>
  <line style="fill:none;stroke:rgb(0,0,0);stroke-miterlimit:10;stroke-linecap:square;" x1="1239" x2="1233" y1="892" y2="896"/>
  <line style="fill:none;stroke:rgb(0,0,0);stroke-miterlimit:10;stroke-linecap:square;" x1="1268" x2="1275" y1="867" y2="878"/>
  <line style="fill:none;stroke:rgb(0,0,0);stroke-miterlimit:10;stroke-linecap:square;" x1="1268" x2="1239" y1="867" y2="892"/>
  <line style="fill:none;stroke:rgb(0,0,0);stroke-miterlimit:10;stroke-linecap:square;" x1="1261" x2="1268" y1="825" y2="836"/>
  <line style="fill:none;stroke:rgb(0,0,0);stroke-miterlimit:10;stroke-linecap:square;" x1="1261" x2="1268" y1="825" y2="867"/>
  <line style="fill:none;stroke:rgb(0,0,0);stroke-miterlimit:10;stroke-linecap:square;" x1="1272" x2="1279" y1="818" y2="829"/>
  <line style="fill:none;stroke:rgb(0,0,0);stroke-miterlimit:10;stroke-linecap:square;" x1="1272" x2="1261" y1="818" y2="825"/>
  <line style="fill:none;stroke:rgb(0,0,0);stroke-miterlimit:10;stroke-linecap:square;" x1="1241" x2="1241" y1="969" y2="969"/>
  <line style="fill:none;stroke:rgb(0,0,0);stroke-miterlimit:10;stroke-linecap:square;" x1="1242" x2="1242" y1="967" y2="967"/>
  <line style="fill:none;stroke:rgb(0,0,0);stroke-miterlimit:10;stroke-linecap:square;" x1="1242" x2="1241" y1="967" y2="969"/>
  <line style="fill:none;stroke:rgb(0,0,0);stroke-miterlimit:10;stroke-linecap:square;" x1="1242" x2="1242" y1="967" y2="967"/>
  <line style="fill:none;stroke:rgb(0,0,0);stroke-miterlimit:10;stroke-linecap:square;" x1="1242" x2="1242" y1="967" y2="967"/>
  <line style="fill:none;stroke:rgb(0,0,0);stroke-miterlimit:10;stroke-linecap:square;" x1="1242" x2="1242" y1="950" y2="950"/>
  <line style="fill:none;stroke:rgb(0,0,0);stroke-miterlimit:10;stroke-linecap:square;" x1="1242" x2="1242" y1="950" y2="967"/>
  <line style="fill:none;stroke:rgb(0,0,0);stroke-miterlimit:10;stroke-linecap:square;" x1="1250" x2="1250" y1="940" y2="940"/>
  <line style="fill:none;stroke:rgb(0,0,0);stroke-miterlimit:10;stroke-linecap:square;" x1="1250" x2="1242" y1="940" y2="950"/>
  <line style="fill:none;stroke:rgb(0,0,0);stroke-miterlimit:10;stroke-linecap:square;" x1="1240" x2="1240" y1="907" y2="907"/>
  <line style="fill:none;stroke:rgb(0,0,0);stroke-miterlimit:10;stroke-linecap:square;" x1="1240" x2="1250" y1="907" y2="940"/>
  <line style="fill:none;stroke:rgb(0,0,0);stroke-miterlimit:10;stroke-linecap:square;" x1="1233" x2="1233" y1="896" y2="896"/>
  <line style="fill:none;stroke:rgb(0,0,0);stroke-miterlimit:10;stroke-linecap:square;" x1="1233" x2="1240" y1="896" y2="907"/>
  <line style="fill:none;stroke:rgb(0,0,0);stroke-miterlimit:10;stroke-linecap:square;" x1="1237" x2="1247" y1="980" y2="965"/>
  <line style="fill:none;stroke:rgb(0,0,0);stroke-miterlimit:10;stroke-linecap:square;" x1="1231" x2="1241" y1="984" y2="969"/>
  <line style="fill:none;stroke:rgb(0,0,0);stroke-miterlimit:10;stroke-linecap:square;" x1="1231" x2="1237" y1="984" y2="980"/>
  <line style="fill:none;stroke:rgb(0,0,0);stroke-miterlimit:10;stroke-linecap:square;" x1="1231" x2="1241" y1="984" y2="969"/>
  <line style="fill:none;stroke:rgb(0,0,0);stroke-miterlimit:10;stroke-linecap:square;" x1="1231" x2="1231" y1="984" y2="984"/>
  <line style="fill:none;stroke:rgb(0,0,0);stroke-miterlimit:10;stroke-linecap:square;" x1="1185" x2="1261" y1="658" y2="825"/>
  <line style="fill:none;stroke:rgb(0,0,0);stroke-miterlimit:10;stroke-linecap:square;" x1="1195" x2="1272" y1="651" y2="818"/>
  <line style="fill:none;stroke:rgb(0,0,0);stroke-miterlimit:10;stroke-linecap:square;" x1="1195" x2="1185" y1="651" y2="658"/>
  <line style="fill:none;stroke:rgb(0,0,0);stroke-miterlimit:10;stroke-linecap:square;" x1="1289" x2="1295" y1="969" y2="925"/>
  <line style="fill:none;stroke:rgb(0,0,0);stroke-miterlimit:10;stroke-linecap:square;" x1="1287" x2="1294" y1="968" y2="924"/>
  <line style="fill:none;stroke:rgb(0,0,0);stroke-miterlimit:10;stroke-linecap:square;" x1="1287" x2="1289" y1="968" y2="969"/>
  <line style="fill:none;stroke:rgb(0,0,0);stroke-miterlimit:10;stroke-linecap:square;" x1="1277" x2="1284" y1="975" y2="931"/>
  <line style="fill:none;stroke:rgb(0,0,0);stroke-miterlimit:10;stroke-linecap:square;" x1="1277" x2="1287" y1="975" y2="968"/>
  <line style="fill:none;stroke:rgb(0,0,0);stroke-miterlimit:10;stroke-linecap:square;" x1="1249" x2="1255" y1="1000" y2="956"/>
  <line style="fill:none;stroke:rgb(0,0,0);stroke-miterlimit:10;stroke-linecap:square;" x1="1249" x2="1277" y1="1000" y2="975"/>
  <line style="fill:none;stroke:rgb(0,0,0);stroke-miterlimit:10;stroke-linecap:square;" x1="1241" x2="1247" y1="1009" y2="965"/>
  <line style="fill:none;stroke:rgb(0,0,0);stroke-miterlimit:10;stroke-linecap:square;" x1="1241" x2="1249" y1="1009" y2="1000"/>
  <line style="fill:none;stroke:rgb(0,0,0);stroke-miterlimit:10;stroke-linecap:square;" x1="1231" x2="1237" y1="1024" y2="980"/>
  <line style="fill:none;stroke:rgb(0,0,0);stroke-miterlimit:10;stroke-linecap:square;" x1="1231" x2="1241" y1="1024" y2="1009"/>
  <line style="fill:none;stroke:rgb(0,0,0);stroke-miterlimit:10;stroke-linecap:square;" x1="1225" x2="1231" y1="1028" y2="984"/>
  <line style="fill:none;stroke:rgb(0,0,0);stroke-miterlimit:10;stroke-linecap:square;" x1="1225" x2="1231" y1="1028" y2="1024"/>
  <line style="fill:none;stroke:rgb(0,0,0);stroke-miterlimit:10;stroke-linecap:square;" x1="1225" x2="1231" y1="1028" y2="984"/>
  <line style="fill:none;stroke:rgb(0,0,0);stroke-miterlimit:10;stroke-linecap:square;" x1="1225" x2="1225" y1="1028" y2="1028"/>
  <line style="fill:none;stroke:rgb(0,0,0);stroke-miterlimit:10;stroke-linecap:square;" x1="1195" x2="1195" y1="651" y2="651"/>
  <line style="fill:none;stroke:rgb(0,0,0);stroke-miterlimit:10;stroke-linecap:square;" x1="1185" x2="1185" y1="657" y2="658"/>
  <line style="fill:none;stroke:rgb(0,0,0);stroke-miterlimit:10;stroke-linecap:square;" x1="1185" x2="1117" y1="657" y2="614"/>
  <line style="fill:none;stroke:rgb(0,0,0);stroke-miterlimit:10;stroke-linecap:square;" x1="1195" x2="1195" y1="651" y2="651"/>
  <line style="fill:none;stroke:rgb(0,0,0);stroke-miterlimit:10;stroke-linecap:square;" x1="1195" x2="1185" y1="651" y2="657"/>
  <line style="fill:none;stroke:rgb(0,0,0);stroke-miterlimit:10;stroke-linecap:square;" x1="1195" x2="1195" y1="650" y2="651"/>
  <line style="fill:none;stroke:rgb(0,0,0);stroke-miterlimit:10;stroke-linecap:square;" x1="1195" x2="1195" y1="650" y2="651"/>
  <line style="fill:none;stroke:rgb(0,0,0);stroke-miterlimit:10;stroke-linecap:square;" x1="1217" x2="1231" y1="1070" y2="1024"/>
  <line style="fill:none;stroke:rgb(0,0,0);stroke-miterlimit:10;stroke-linecap:square;" x1="1217" x2="1230" y1="1070" y2="1156"/>
  <line style="fill:none;stroke:rgb(0,0,0);stroke-miterlimit:10;stroke-linecap:square;" x1="1211" x2="1225" y1="1074" y2="1028"/>
  <line style="fill:none;stroke:rgb(0,0,0);stroke-miterlimit:10;stroke-linecap:square;" x1="1211" x2="1217" y1="1074" y2="1070"/>
  <line style="fill:none;stroke:rgb(0,0,0);stroke-miterlimit:10;stroke-linecap:square;" x1="1211" x2="1211" y1="1074" y2="1075"/>
  <line style="fill:none;stroke:rgb(0,0,0);stroke-miterlimit:10;stroke-linecap:square;" x1="1211" x2="1225" y1="1074" y2="1028"/>
  <line style="fill:none;stroke:rgb(0,0,0);stroke-miterlimit:10;stroke-linecap:square;" x1="1211" x2="1211" y1="1074" y2="1074"/>
  <line style="fill:none;stroke:rgb(0,0,0);stroke-miterlimit:10;stroke-linecap:square;" x1="1482" x2="1480" y1="899" y2="897"/>
  <line style="fill:none;stroke:rgb(0,0,0);stroke-miterlimit:10;stroke-linecap:square;" x1="1482" x2="1571" y1="899" y2="925"/>
  <line style="fill:none;stroke:rgb(0,0,0);stroke-miterlimit:10;stroke-linecap:square;" x1="1482" x2="1480" y1="899" y2="897"/>
  <line style="fill:none;stroke:rgb(0,0,0);stroke-miterlimit:10;stroke-linecap:square;" x1="1482" x2="1482" y1="899" y2="899"/>
  <line style="fill:none;stroke:rgb(0,0,0);stroke-miterlimit:10;stroke-linecap:square;" x1="1482" x2="1480" y1="900" y2="898"/>
  <line style="fill:none;stroke:rgb(0,0,0);stroke-miterlimit:10;stroke-linecap:square;" x1="1482" x2="1482" y1="900" y2="899"/>
  <line style="fill:none;stroke:rgb(0,0,0);stroke-miterlimit:10;stroke-linecap:square;" x1="1481" x2="1479" y1="900" y2="898"/>
  <line style="fill:none;stroke:rgb(0,0,0);stroke-miterlimit:10;stroke-linecap:square;" x1="1481" x2="1482" y1="900" y2="900"/>
  <line style="fill:none;stroke:rgb(0,0,0);stroke-miterlimit:10;stroke-linecap:square;" x1="1480" x2="1478" y1="899" y2="897"/>
  <line style="fill:none;stroke:rgb(0,0,0);stroke-miterlimit:10;stroke-linecap:square;" x1="1480" x2="1481" y1="899" y2="900"/>
  <line style="fill:none;stroke:rgb(0,0,0);stroke-miterlimit:10;stroke-linecap:square;" x1="1298" x2="1296" y1="925" y2="924"/>
  <line style="fill:none;stroke:rgb(0,0,0);stroke-miterlimit:10;stroke-linecap:square;" x1="1298" x2="1480" y1="925" y2="899"/>
  <line style="fill:none;stroke:rgb(0,0,0);stroke-miterlimit:10;stroke-linecap:square;" x1="1298" x2="1295" y1="927" y2="925"/>
  <line style="fill:none;stroke:rgb(0,0,0);stroke-miterlimit:10;stroke-linecap:square;" x1="1298" x2="1298" y1="927" y2="925"/>
  <line style="fill:none;stroke:rgb(0,0,0);stroke-miterlimit:10;stroke-linecap:square;" x1="1291" x2="1289" y1="971" y2="969"/>
  <line style="fill:none;stroke:rgb(0,0,0);stroke-miterlimit:10;stroke-linecap:square;" x1="1291" x2="1298" y1="971" y2="927"/>
  <line style="fill:none;stroke:rgb(0,0,0);stroke-miterlimit:10;stroke-linecap:square;" x1="1522" x2="1519" y1="762" y2="766"/>
  <line style="fill:none;stroke:rgb(0,0,0);stroke-miterlimit:10;stroke-linecap:square;" x1="1528" x2="1525" y1="804" y2="808"/>
  <line style="fill:none;stroke:rgb(0,0,0);stroke-miterlimit:10;stroke-linecap:square;" x1="1528" x2="1522" y1="804" y2="762"/>
  <line style="fill:none;stroke:rgb(0,0,0);stroke-miterlimit:10;stroke-linecap:square;" x1="1538" x2="1535" y1="838" y2="841"/>
  <line style="fill:none;stroke:rgb(0,0,0);stroke-miterlimit:10;stroke-linecap:square;" x1="1538" x2="1528" y1="838" y2="804"/>
  <line style="fill:none;stroke:rgb(0,0,0);stroke-miterlimit:10;stroke-linecap:square;" x1="1539" x2="1536" y1="838" y2="841"/>
  <line style="fill:none;stroke:rgb(0,0,0);stroke-miterlimit:10;stroke-linecap:square;" x1="1539" x2="1538" y1="838" y2="838"/>
  <line style="fill:none;stroke:rgb(0,0,0);stroke-miterlimit:10;stroke-linecap:square;" x1="1235" x2="1195" y1="564" y2="651"/>
  <line style="fill:none;stroke:rgb(0,0,0);stroke-miterlimit:10;stroke-linecap:square;" x1="1235" x2="1248" y1="564" y2="474"/>
  <line style="fill:none;stroke:rgb(0,0,0);stroke-miterlimit:10;stroke-linecap:square;" x1="1235" x2="1195" y1="564" y2="651"/>
  <line style="fill:none;stroke:rgb(0,0,0);stroke-miterlimit:10;stroke-linecap:square;" x1="1235" x2="1235" y1="564" y2="564"/>
  <line style="fill:none;stroke:rgb(0,0,0);stroke-miterlimit:10;stroke-linecap:square;" x1="1312" x2="1272" y1="731" y2="818"/>
  <line style="fill:none;stroke:rgb(0,0,0);stroke-miterlimit:10;stroke-linecap:square;" x1="1312" x2="1235" y1="731" y2="564"/>
  <line style="fill:none;stroke:rgb(0,0,0);stroke-miterlimit:10;stroke-linecap:square;" x1="1319" x2="1279" y1="742" y2="829"/>
  <line style="fill:none;stroke:rgb(0,0,0);stroke-miterlimit:10;stroke-linecap:square;" x1="1319" x2="1312" y1="742" y2="731"/>
  <line style="fill:none;stroke:rgb(0,0,0);stroke-miterlimit:10;stroke-linecap:square;" x1="1500" x2="1460" y1="716" y2="803"/>
  <line style="fill:none;stroke:rgb(0,0,0);stroke-miterlimit:10;stroke-linecap:square;" x1="1500" x2="1319" y1="716" y2="742"/>
  <line style="fill:none;stroke:rgb(0,0,0);stroke-miterlimit:10;stroke-linecap:square;" x1="1559" x2="1519" y1="678" y2="766"/>
  <line style="fill:none;stroke:rgb(0,0,0);stroke-miterlimit:10;stroke-linecap:square;" x1="1559" x2="1500" y1="678" y2="716"/>
  <line style="fill:none;stroke:rgb(0,0,0);stroke-miterlimit:10;stroke-linecap:square;" x1="1562" x2="1522" y1="674" y2="762"/>
  <line style="fill:none;stroke:rgb(0,0,0);stroke-miterlimit:10;stroke-linecap:square;" x1="1562" x2="1559" y1="674" y2="678"/>
  <line style="fill:none;stroke:rgb(0,0,0);stroke-miterlimit:10;stroke-linecap:square;" x1="1562" x2="1641" y1="674" y2="502"/>
  <line style="fill:none;stroke:rgb(0,0,0);stroke-miterlimit:10;stroke-linecap:square;" x1="1562" x2="1747" y1="674" y2="461"/>
  <line style="fill:none;stroke:rgb(0,0,0);stroke-miterlimit:10;stroke-linecap:square;" x1="1483" x2="1482" y1="900" y2="900"/>
  <line style="fill:none;stroke:rgb(0,0,0);stroke-miterlimit:10;stroke-linecap:square;" x1="1482" x2="1481" y1="900" y2="900"/>
  <line style="fill:none;stroke:rgb(0,0,0);stroke-miterlimit:10;stroke-linecap:square;" x1="1482" x2="1483" y1="900" y2="900"/>
  <line style="fill:none;stroke:rgb(0,0,0);stroke-miterlimit:10;stroke-linecap:square;" x1="1481" x2="1480" y1="900" y2="899"/>
  <line style="fill:none;stroke:rgb(0,0,0);stroke-miterlimit:10;stroke-linecap:square;" x1="1481" x2="1482" y1="900" y2="900"/>
  <line style="fill:none;stroke:rgb(0,0,0);stroke-miterlimit:10;stroke-linecap:square;" x1="1299" x2="1298" y1="926" y2="925"/>
  <line style="fill:none;stroke:rgb(0,0,0);stroke-miterlimit:10;stroke-linecap:square;" x1="1299" x2="1481" y1="926" y2="900"/>
  <line style="fill:none;stroke:rgb(0,0,0);stroke-miterlimit:10;stroke-linecap:square;" x1="1298" x2="1298" y1="928" y2="927"/>
  <line style="fill:none;stroke:rgb(0,0,0);stroke-miterlimit:10;stroke-linecap:square;" x1="1298" x2="1299" y1="928" y2="926"/>
  <line style="fill:none;stroke:rgb(0,0,0);stroke-miterlimit:10;stroke-linecap:square;" x1="1292" x2="1291" y1="972" y2="971"/>
  <line style="fill:none;stroke:rgb(0,0,0);stroke-miterlimit:10;stroke-linecap:square;" x1="1292" x2="1298" y1="972" y2="928"/>
  <line style="fill:none;stroke:rgb(0,0,0);stroke-miterlimit:10;stroke-linecap:square;" x1="1292" x2="1388" y1="972" y2="1183"/>
  <line style="fill:none;stroke:rgb(0,0,0);stroke-miterlimit:10;stroke-linecap:square;" x1="1541" x2="1539" y1="837" y2="838"/>
  <line style="fill:none;stroke:rgb(0,0,0);stroke-miterlimit:10;stroke-linecap:square;" x1="1541" x2="1615" y1="837" y2="789"/>
  <line style="fill:none;stroke:rgb(0,0,0);stroke-miterlimit:10;stroke-linecap:square;" x1="1537" x2="1536" y1="841" y2="841"/>
  <line style="fill:none;stroke:rgb(0,0,0);stroke-miterlimit:10;stroke-linecap:square;" x1="1537" x2="1541" y1="841" y2="837"/>
  <line style="fill:none;stroke:rgb(0,0,0);stroke-miterlimit:10;stroke-linecap:square;" x1="1539" x2="1538" y1="841" y2="842"/>
  <line style="fill:none;stroke:rgb(0,0,0);stroke-miterlimit:10;stroke-linecap:square;" x1="1539" x2="1537" y1="841" y2="841"/>
  <line style="fill:none;stroke:rgb(0,0,0);stroke-miterlimit:10;stroke-linecap:square;" x1="1539" x2="1627" y1="841" y2="816"/>
  <line style="fill:none;stroke:rgb(0,0,0);stroke-miterlimit:10;stroke-linecap:square;" x1="1181" x2="1242" y1="941" y2="950"/>
  <line style="fill:none;stroke:rgb(0,0,0);stroke-miterlimit:10;stroke-linecap:square;" x1="1190" x2="1250" y1="932" y2="940"/>
  <line style="fill:none;stroke:rgb(0,0,0);stroke-miterlimit:10;stroke-linecap:square;" x1="1190" x2="1181" y1="932" y2="941"/>
  <line style="fill:none;stroke:rgb(0,0,0);stroke-miterlimit:10;stroke-linecap:square;" x1="1180" x2="1240" y1="898" y2="907"/>
  <line style="fill:none;stroke:rgb(0,0,0);stroke-miterlimit:10;stroke-linecap:square;" x1="1180" x2="1190" y1="898" y2="932"/>
  <line style="fill:none;stroke:rgb(0,0,0);stroke-miterlimit:10;stroke-linecap:square;" x1="1173" x2="1233" y1="887" y2="896"/>
  <line style="fill:none;stroke:rgb(0,0,0);stroke-miterlimit:10;stroke-linecap:square;" x1="1173" x2="1180" y1="887" y2="898"/>
  <line style="fill:none;stroke:rgb(0,0,0);stroke-miterlimit:10;stroke-linecap:square;" x1="1173" x2="879" y1="887" y2="801"/>
  <line style="fill:none;stroke:rgb(0,0,0);stroke-miterlimit:10;stroke-linecap:square;" x1="1228" x2="1231" y1="985" y2="984"/>
  <line style="fill:none;stroke:rgb(0,0,0);stroke-miterlimit:10;stroke-linecap:square;" x1="1238" x2="1241" y1="969" y2="969"/>
  <line style="fill:none;stroke:rgb(0,0,0);stroke-miterlimit:10;stroke-linecap:square;" x1="1238" x2="1228" y1="969" y2="985"/>
  <line style="fill:none;stroke:rgb(0,0,0);stroke-miterlimit:10;stroke-linecap:square;" x1="1238" x2="1242" y1="968" y2="967"/>
  <line style="fill:none;stroke:rgb(0,0,0);stroke-miterlimit:10;stroke-linecap:square;" x1="1238" x2="1238" y1="968" y2="969"/>
  <line style="fill:none;stroke:rgb(0,0,0);stroke-miterlimit:10;stroke-linecap:square;" x1="1238" x2="1242" y1="967" y2="967"/>
  <line style="fill:none;stroke:rgb(0,0,0);stroke-miterlimit:10;stroke-linecap:square;" x1="1238" x2="1238" y1="967" y2="968"/>
  <line style="fill:none;stroke:rgb(0,0,0);stroke-miterlimit:10;stroke-linecap:square;" x1="1238" x2="1242" y1="950" y2="950"/>
  <line style="fill:none;stroke:rgb(0,0,0);stroke-miterlimit:10;stroke-linecap:square;" x1="1238" x2="1238" y1="950" y2="967"/>
  <line style="fill:none;stroke:rgb(0,0,0);stroke-miterlimit:10;stroke-linecap:square;" x1="1178" x2="1181" y1="941" y2="941"/>
  <line style="fill:none;stroke:rgb(0,0,0);stroke-miterlimit:10;stroke-linecap:square;" x1="1178" x2="1238" y1="941" y2="950"/>
  <line style="fill:none;stroke:rgb(0,0,0);stroke-miterlimit:10;stroke-linecap:square;" x1="1178" x2="909" y1="941" y2="941"/>
  <line style="fill:none;stroke:rgb(0,0,0);stroke-miterlimit:10;stroke-linecap:square;" x1="1231" x2="1231" y1="984" y2="984"/>
  <line style="fill:none;stroke:rgb(0,0,0);stroke-miterlimit:10;stroke-linecap:square;" x1="1231" x2="1153" y1="984" y2="1035"/>
  <line style="fill:none;stroke:rgb(0,0,0);stroke-miterlimit:10;stroke-linecap:square;" x1="1228" x2="1228" y1="985" y2="985"/>
  <line style="fill:none;stroke:rgb(0,0,0);stroke-miterlimit:10;stroke-linecap:square;" x1="1228" x2="1231" y1="985" y2="984"/>
  <line style="fill:none;stroke:rgb(0,0,0);stroke-miterlimit:10;stroke-linecap:square;" x1="1228" x2="1142" y1="985" y2="1010"/>
  <line style="fill:none;stroke:rgb(0,0,0);stroke-miterlimit:10;stroke-linecap:square;" x1="1552" x2="1483" y1="961" y2="900"/>
  <line style="fill:none;stroke:rgb(0,0,0);stroke-miterlimit:10;stroke-linecap:square;" x1="1551" x2="1482" y1="961" y2="900"/>
  <line style="fill:none;stroke:rgb(0,0,0);stroke-miterlimit:10;stroke-linecap:square;" x1="1551" x2="1552" y1="961" y2="961"/>
  <line style="fill:none;stroke:rgb(0,0,0);stroke-miterlimit:10;stroke-linecap:square;" x1="1551" x2="1673" y1="961" y2="1101"/>
  <text style="fill:rgb(0,0,0);stroke:none;font-size:10px;" x="1735" y="848">EviPB83_PB_S</text>
  <text style="fill:rgb(0,0,0);stroke:none;font-size:10px;" x="1583" y="934">EviPB84_PB_S</text>
  <text style="fill:rgb(0,0,0);stroke:none;font-size:10px;" x="1644" y="1121">kbjd1004_KB_S</text>
  <text style="fill:rgb(0,0,0);stroke:none;font-size:10px;" x="1368" y="1205">SR7_SR_S</text>
  <text style="fill:rgb(0,0,0);stroke:none;font-size:10px;" x="1208" y="1179">Vy1_Vy_S</text>
  <text style="fill:rgb(0,0,0);stroke:none;font-size:10px;" x="1186" y="1098">SR2_SR_S</text>
  <text style="fill:rgb(0,0,0);stroke:none;font-size:10px;" x="1094" y="1048">Vy8_Vy_S</text>
  <text style="fill:rgb(0,0,0);stroke:none;font-size:10px;" x="1079" y="1019">SR1_SR_S</text>
  <text style="fill:rgb(0,0,0);stroke:none;font-size:10px;" x="848" y="947">Vy6_Vy_S</text>
  <text style="fill:rgb(0,0,0);stroke:none;font-size:10px;" x="818" y="804">Vy4_Vy_S</text>
  <text style="fill:rgb(0,0,0);stroke:none;font-size:10px;" x="1058" y="614">Vy3_Vy_S</text>
  <text style="fill:rgb(0,0,0);stroke:none;font-size:10px;" x="1226" y="458">Vy7_Vy_S</text>
  <text style="fill:rgb(0,0,0);stroke:none;font-size:10px;" x="1609" y="487">kbjd1001_KB_S</text>
  <text style="fill:rgb(0,0,0);stroke:none;font-size:10px;" x="1719" y="448">EviPB87_PB_S</text>
  <text style="fill:rgb(0,0,0);stroke:none;font-size:10px;" x="1625" y="788">kbjd1003_KB_S</text>
  <text style="fill:rgb(0,0,0);stroke:none;font-size:10px;" x="1639" y="819">kbjd1002_KB_S</text>
  <text style="fill:rgb(0,0,0);stroke:none;font-size:10px;" x="1115" y="634">Vy5_Vy_S, SR5_SR_S, Vy2_Vy_S</text>
  <text style="fill:rgb(0,0,0);stroke:none;font-size:10px;" x="1155" y="1086">SR3_SR_S, Vy9_Vy_S</text>
  <text style="fill:rgb(0,0,0);stroke:none;font-size:10px;" x="1561" y="975">EviPB86_PB_S</text>
  <line style="fill:none;stroke:rgb(128,128,128);stroke-miterlimit:10;stroke-linecap:square;" x1="566" x2="619" y1="387" y2="387"/>
  <line style="fill:none;stroke:rgb(128,128,128);stroke-miterlimit:10;stroke-linecap:square;" x1="566" x2="566" y1="384" y2="390"/>
  <line style="fill:none;stroke:rgb(128,128,128);stroke-miterlimit:10;stroke-linecap:square;" x1="619" x2="619" y1="384" y2="390"/>
  <text style="fill:rgb(128,128,128);stroke:none;font-family:&quot;Bitstream Vera Sans&quot;;font-size:10px;font-style:italic;" x="621" y="393">0.001</text>
</svg>
